<?xml version="1.0" encoding="UTF-8" standalone="no"?>
<!-- Uploaded to: SVG Repo, www.svgrepo.com, Generator: SVG Repo Mixer Tools -->

<svg
   height="800"
   width="800"
   version="1.1"
   id="Capa_1"
   viewBox="0 0 25.799 25.799"
   xml:space="preserve"
   xmlns="http://www.w3.org/2000/svg"
   xmlns:svg="http://www.w3.org/2000/svg"><defs
   id="defs1" />
<g
   id="g1">
	<path
   style="fill:#030104"
   d="M 9.271,5.611 C 8.853,5.691 8.417,5.264 8.296,4.658 8.176,4.05 8.417,3.495 8.836,3.418 9.255,3.336 9.69,3.764 9.811,4.37 9.933,4.977 9.688,5.53 9.271,5.611 Z M 8.421,5.938 C 8.432,5.436 8.161,5.022 7.815,5.014 7.468,5.007 7.179,5.405 7.168,5.909 7.156,6.409 7.426,6.823 7.773,6.83 8.117,6.839 8.408,6.44 8.421,5.938 Z M 11.846,3.457 C 11.845,2.68 11.421,2.05 10.898,2.051 10.374,2.05 9.948,2.681 9.948,3.458 c 0,0.775 0.424,1.406 0.949,1.407 0.523,-0.001 0.949,-0.632 0.949,-1.408 z m -4.859,7.992 c -0.153,4.592 2.956,6.001 2.956,10.707 0,1.729 1.154,3.643 3.156,3.643 2.938,0 3.645,-1.597 3.705,-3.408 0.113,-3.37 -3.08,-3.753 -3.08,-6.722 0,-3.715 4.094,-3.688 4.094,-7.062 0,-2.329 -2.031,-2.595 -3.11,-2.595 -2.017,0.001 -7.567,0.846 -7.721,5.437 z M 18.774,2.668 C 18.98,1.344 18.427,0.154 17.539,0.014 c -0.888,-0.14 -1.775,0.82 -1.982,2.145 -0.205,1.323 0.347,2.513 1.236,2.653 0.889,0.141 1.774,-0.819 1.981,-2.144 z M 14.778,2.883 C 14.867,1.948 14.421,1.141 13.775,1.078 13.129,1.015 12.532,1.723 12.441,2.659 c -0.092,0.936 0.356,1.742 1.002,1.805 0.645,0.061 1.242,-0.646 1.335,-1.581 z"
   id="path1" />
</g>
<path
   style="fill:#ff00ff;fill-opacity:0.82439;stroke-width:0.0359367;stroke-dasharray:0.161715, 0.323429"
   d="M 12.725182,25.762492 C 11.956642,25.645816 11.311856,25.269233 10.818476,24.648893 10.46547,24.205048 10.246992,23.755915 10.090586,23.152542 10.009093,22.838167 9.9919353,22.696562 9.9657748,22.122484 9.9167509,21.046685 9.8581894,20.581846 9.6818926,19.869139 9.4672365,19.001359 9.2519506,18.460602 8.5348713,16.988039 7.8844424,15.652347 7.7039832,15.249732 7.5049459,14.690217 7.2273838,13.909959 7.0803579,13.193812 7.0175128,12.315985 6.8913089,10.553149 7.3496698,9.2309706 8.4539266,8.1725356 9.1608914,7.4949068 10.069973,6.9835223 11.251407,6.5988731 12.32408,6.2496339 13.337789,6.0747999 14.452511,6.0467803 c 0.991443,-0.024921 1.562156,0.076129 2.155199,0.3815997 0.376026,0.193687 0.756788,0.5795933 0.927963,0.940499 0.206867,0.4361589 0.244763,0.6305086 0.24411,1.2519172 -6.77e-4,0.6444429 -0.05961,0.9253717 -0.29919,1.4262348 -0.298609,0.624264 -0.591223,0.958392 -1.664571,1.900728 -1.068244,0.937855 -1.390461,1.306852 -1.712981,1.961669 -0.502677,1.020594 -0.525827,2.272622 -0.06064,3.279465 0.212547,0.46003 0.458793,0.792339 1.356876,1.831104 0.611113,0.706841 0.887734,1.126268 1.109964,1.682979 0.176455,0.44204 0.241467,0.775459 0.263028,1.348966 0.03301,0.877946 -0.08372,1.519404 -0.390409,2.145538 -0.161134,0.328966 -0.207058,0.392423 -0.483211,0.667687 -0.273462,0.272583 -0.343005,0.322916 -0.669635,0.484663 -0.425956,0.210932 -0.913273,0.345863 -1.439663,0.398622 -0.327724,0.03285 -0.891308,0.04028 -1.064172,0.01404 z"
   id="path2" /><path
   style="fill:#ff00ff;fill-opacity:0.82439;stroke-width:0.0359367;stroke-dasharray:0.161715, 0.323429"
   d="M 16.603232,4.7451423 C 16.1729,4.5914716 15.817052,4.1426828 15.638517,3.5284612 15.551935,3.2305885 15.519625,2.5023132 15.577157,2.145413 c 0.116695,-0.7239001 0.505936,-1.45678916 0.959592,-1.80678245 0.291855,-0.2251641 0.504575,-0.30496166 0.815773,-0.30602014 0.237536,-8.0793e-4 0.293765,0.0107784 0.475411,0.09796156 1.069029,0.51309354 1.301868,2.51478343 0.444447,3.82085153 -0.200346,0.3051774 -0.5102,0.5943606 -0.778227,0.7263099 -0.269437,0.1326437 -0.631522,0.1600396 -0.890921,0.067409 z"
   id="path3" /><path
   style="fill:#ff00ff;fill-opacity:0.82439;stroke-width:0.0359367;stroke-dasharray:0.161715, 0.323429"
   d="M 13.261102,4.4056843 C 12.721574,4.2324388 12.348651,3.3751461 12.468263,2.5830694 12.652702,1.36171 13.586358,0.71515205 14.273493,1.3329456 c 0.696453,0.6261707 0.643795,2.1455549 -0.09789,2.8246539 -0.284135,0.2601574 -0.605445,0.3473226 -0.914496,0.2480848 z"
   id="path4" /><path
   style="fill:#ff00ff;fill-opacity:0.82439;stroke-width:0.0359367;stroke-dasharray:0.161715, 0.323429"
   d="M 10.600088,4.7710542 C 10.449693,4.691532 10.243978,4.4638775 10.143705,4.2659991 9.8920535,3.7693884 9.9180044,3.0232454 10.203895,2.5354099 c 0.09408,-0.160541 0.303659,-0.3547564 0.447806,-0.4149847 0.344982,-0.1441428 0.739341,0.044476 0.959097,0.4587285 0.152598,0.2876558 0.207868,0.5204451 0.207868,0.8755036 0,0.604518 -0.251654,1.1318373 -0.626822,1.3134533 -0.172487,0.083499 -0.436919,0.084815 -0.591756,0.00294 z"
   id="path5" /><path
   style="fill:#ff00ff;fill-opacity:0.82439;stroke-width:0.0359367;stroke-dasharray:0.161715, 0.323429"
   d="M 8.9315635,5.5474932 C 8.6655458,5.431806 8.3975361,5.0516142 8.3168775,4.675515 8.2649531,4.4334001 8.2939006,4.0590012 8.3794143,3.8666806 8.5073641,3.5789214 8.6907044,3.4388103 8.9392967,3.4388103 c 0.294117,0 0.5518013,0.2053036 0.729727,0.5813924 0.2838819,0.6000522 0.1563303,1.3013906 -0.2780716,1.5289694 -0.1079034,0.056529 -0.3273858,0.055727 -0.4593886,-0.00168 z"
   id="path6" /><path
   style="fill:#ff00ff;fill-opacity:0.82439;stroke-width:0.0359367;stroke-dasharray:0.161715, 0.323429"
   d="M 7.538977,6.7336957 C 7.3488326,6.6118725 7.1787143,6.2434086 7.1787143,5.9533924 c 0,-0.1514492 0.063099,-0.4226018 0.1283861,-0.5517097 C 7.3864943,5.244679 7.5972237,5.0628109 7.7282252,5.0382348 8.1360794,4.9617208 8.4978817,5.5618149 8.3821064,6.122779 8.3185625,6.4306665 8.1791479,6.6587777 7.9964113,6.7538554 7.8724497,6.8183526 7.6562386,6.808824 7.538977,6.7336957 Z"
   id="path7" /></svg>
